<?xml version="1.0" standalone="no"?>
<!DOCTYPE svg PUBLIC "-//W3C//DTD SVG 20010904//EN"
 "http://www.w3.org/TR/2001/REC-SVG-20010904/DTD/svg10.dtd">
<svg version="1.0" xmlns="http://www.w3.org/2000/svg"
 width="253.000000pt" height="199.000000pt" viewBox="0 0 253.000000 199.000000"
 preserveAspectRatio="xMidYMid meet">

<g transform="translate(0.000000,199.000000) scale(0.100000,-0.100000)"
fill="#000000" stroke="none">
<path d="M1347 1833 c-9 -2 -15 -9 -11 -14 3 -5 11 -6 17 -2 10 5 1 -8 -32
-47 -2 -3 -1 3 2 13 12 31 -2 37 -36 17 -41 -26 -87 -25 -144 1 -25 11 -47 18
-50 16 -2 -3 3 -19 12 -37 9 -18 14 -34 12 -36 -2 -3 -12 12 -22 33 -10 21
-19 39 -20 41 -7 8 -45 -20 -40 -28 3 -6 0 -8 -7 -5 -7 3 -20 -8 -30 -25 -25
-45 -74 -70 -135 -70 -29 0 -63 -5 -77 -11 -25 -12 -51 -55 -61 -101 -7 -37
-59 -94 -92 -103 -42 -10 -80 -42 -86 -72 -8 -41 8 -73 36 -73 18 0 34 16 71
75 189 298 568 425 887 298 149 -59 297 -184 373 -316 21 -36 42 -64 47 -62 4
3 8 -7 8 -22 0 -16 9 -57 19 -93 19 -63 20 -65 52 -65 29 0 35 4 41 29 12 42
-11 85 -64 125 -37 28 -48 42 -57 82 -7 26 -9 53 -5 59 3 5 3 16 -1 22 -6 9
-10 6 -14 -9 -5 -22 -5 -22 -17 2 -10 22 -9 25 8 25 10 0 19 6 19 13 0 22 -33
46 -87 62 -69 20 -97 45 -122 108 -24 58 -66 91 -82 65 -7 -10 -9 -10 -9 1 0
10 -10 12 -44 7 -56 -9 -104 10 -162 64 -42 38 -57 43 -97 33z m488 -283 c3
-5 2 -10 -4 -10 -5 0 -13 5 -16 10 -3 6 -2 10 4 10 5 0 13 -4 16 -10z m232
-376 c-3 -3 -12 -4 -19 -1 -8 3 -5 6 6 6 11 1 17 -2 13 -5z"/>
<path d="M1112 1714 c-90 -22 -70 -29 24 -9 219 49 471 -25 636 -186 33 -33
63 -58 65 -56 2 3 -30 36 -71 74 -79 74 -169 127 -276 163 -87 30 -286 37
-378 14z"/>
<path d="M983 1670 c-73 -32 -147 -85 -212 -151 -74 -74 -160 -199 -137 -199
2 0 18 25 36 56 17 31 68 93 113 138 64 64 102 93 172 129 91 47 106 62 28 27z"/>
<path d="M1218 1679 c-23 -13 -25 -110 -3 -129 15 -12 39 -5 30 10 -3 5 -8 27
-11 48 -6 45 5 58 37 42 28 -16 36 -5 14 20 -20 22 -41 25 -67 9z"/>
<path d="M1350 1670 c0 -6 7 -13 15 -16 8 -4 13 -9 11 -13 -3 -4 -7 -30 -11
-59 -4 -41 -3 -52 9 -52 8 0 17 13 20 30 3 17 9 43 12 59 4 21 10 28 20 24 8
-3 14 1 14 10 0 8 -13 17 -31 21 -44 9 -59 8 -59 -4z"/>
<path d="M1108 1664 c-4 -3 1 -30 9 -60 9 -30 13 -57 10 -60 -12 -12 -27 9
-38 52 -10 40 -31 65 -44 52 -2 -2 2 -28 10 -57 13 -50 36 -80 62 -81 19 0 44
31 39 49 -2 9 -7 37 -11 64 -6 43 -20 59 -37 41z"/>
<path d="M1485 1641 c-6 -10 -45 -120 -45 -128 0 -1 8 -3 18 -3 13 0 23 16 37
58 11 31 20 61 20 66 0 14 -22 19 -30 7z"/>
<path d="M1567 1599 c-28 -16 -56 -80 -46 -107 10 -27 47 -43 71 -30 25 12 58
81 52 105 -3 11 -17 26 -30 32 -29 13 -25 13 -47 0z m43 -36 c0 -26 -39 -85
-50 -78 -15 9 -12 26 10 63 22 35 40 42 40 15z"/>
<path d="M935 1590 c-3 -5 2 -39 12 -75 13 -48 21 -65 33 -62 8 1 14 10 12 19
-3 21 15 33 31 19 9 -7 17 -7 27 1 12 8 11 9 -4 4 -15 -5 -17 -4 -7 8 10 12 8
16 -9 21 -11 3 -18 10 -16 14 7 10 -42 61 -59 61 -8 0 -16 -4 -20 -10z m44
-29 c17 -11 23 -39 10 -47 -5 -3 -12 3 -16 13 -4 10 -14 23 -22 30 -14 11 -14
12 -1 13 8 0 21 -4 29 -9z"/>
<path d="M1271 1581 c-16 -29 -13 -40 9 -34 11 3 20 14 20 24 0 26 -17 33 -29
10z"/>
<path d="M1661 1476 c-35 -36 -49 -56 -41 -61 7 -4 24 5 41 21 33 32 36 28 12
-21 -13 -27 -14 -38 -5 -47 10 -10 24 -1 64 40 37 36 49 55 42 62 -7 7 -19 3
-37 -16 -31 -31 -32 -29 -12 19 12 28 12 37 2 46 -10 8 -26 -3 -66 -43z"/>
<path d="M1156 1488 c-43 -9 -150 -61 -173 -83 -8 -8 -22 -20 -31 -28 -9 -7
-33 -29 -51 -50 -26 -27 -31 -37 -18 -37 9 0 32 21 52 46 19 26 35 44 35 41 0
-3 23 10 51 29 28 19 85 44 125 57 96 29 102 45 10 25z"/>
<path d="M1230 1490 c0 -5 14 -10 30 -10 17 0 30 5 30 10 0 6 -13 10 -30 10
-16 0 -30 -4 -30 -10z"/>
<path d="M1305 1493 c6 -5 45 -17 88 -27 54 -13 95 -29 135 -57 92 -62 121
-94 172 -186 22 -39 40 -55 40 -35 0 16 -72 127 -103 161 -43 45 -107 92 -118
85 -5 -3 -9 -1 -9 4 0 12 -78 44 -90 37 -4 -3 -10 0 -12 6 -2 6 -28 14 -58 16
-35 4 -51 2 -45 -4z"/>
<path d="M1846 1440 c4 -8 18 -28 30 -45 12 -16 32 -54 45 -84 13 -30 25 -49
27 -43 5 15 -50 118 -84 157 -14 17 -22 23 -18 15z"/>
<path d="M1325 1423 c-4 -13 -13 -23 -19 -23 -7 0 -13 -13 -13 -30 0 -22 4
-29 14 -25 8 3 23 0 34 -6 20 -10 20 -10 3 23 -9 18 -11 28 -4 21 13 -12 40
-7 40 8 0 5 -9 9 -19 9 -12 0 -21 8 -24 23 l-4 22 -8 -22z"/>
<path d="M1172 1383 c-11 -11 -11 -16 0 -27 16 -16 43 -7 44 16 2 21 -28 29
-44 11z"/>
<path d="M1434 1354 c2 -6 -1 -17 -7 -23 -8 -8 -7 -11 6 -11 9 0 17 -6 17 -12
1 -8 6 -6 14 4 7 10 17 14 22 10 4 -4 2 1 -5 10 -7 9 -11 21 -8 25 3 4 -6 8
-19 8 -14 0 -22 -5 -20 -11z"/>
<path d="M1076 1325 c-3 -8 -2 -15 3 -15 5 0 14 7 21 15 10 12 10 15 -3 15 -8
0 -17 -7 -21 -15z"/>
<path d="M464 1316 c-3 -10 -54 -381 -54 -398 0 -3 24 -9 53 -13 28 -3 120
-15 202 -26 83 -10 169 -22 192 -25 36 -4 42 -3 37 10 -8 21 2 20 27 -3 25
-23 89 -34 82 -14 -3 7 0 13 6 13 6 0 11 -6 11 -14 0 -15 99 -34 118 -22 6 3
13 0 15 -6 3 -7 6 -4 6 7 1 14 8 21 22 21 19 0 19 -1 3 -13 -10 -7 -16 -15
-13 -17 4 -3 191 -29 309 -42 25 -3 53 -8 63 -10 10 -3 17 0 17 8 0 10 2 10 8
1 9 -14 133 -37 167 -31 13 3 26 2 27 -2 6 -12 303 -47 310 -36 5 7 8 5 8 -4
0 -11 3 -11 11 3 6 10 9 38 7 63 -2 25 1 44 7 45 5 0 0 4 -12 9 -13 5 -23 14
-23 20 0 7 6 8 19 1 15 -9 20 -7 25 12 3 12 6 32 6 45 0 19 -4 22 -27 17 -27
-6 -27 -6 3 10 30 15 32 21 39 83 3 37 8 74 11 82 2 10 -3 16 -15 17 -10 1
-72 9 -137 18 -88 12 -119 13 -124 4 -5 -8 -9 -8 -11 0 -4 12 -57 22 -244 46
-71 9 -213 28 -315 42 -102 14 -213 26 -247 27 -35 0 -63 4 -63 7 0 4 -21 9
-47 12 -27 3 -84 10 -128 17 -56 8 -80 9 -83 1 -2 -7 -9 -5 -19 4 -8 8 -31 16
-51 16 -20 1 -46 3 -57 5 -117 19 -137 20 -141 10z m211 -76 c27 0 34 -21 36
-112 1 -32 5 -58 8 -58 3 0 5 -20 3 -45 -3 -26 1 -52 8 -60 9 -11 10 -15 1
-15 -7 0 -9 -5 -6 -11 5 -7 -6 -9 -31 -7 -33 3 -40 7 -42 28 -2 14 -7 29 -12
33 -11 12 -50 -10 -50 -28 0 -10 -11 -15 -35 -15 -39 0 -39 1 -26 48 6 20 6
30 0 27 -5 -4 -9 -1 -9 4 0 6 6 11 13 11 6 0 21 27 33 60 19 53 19 60 5 60
-12 0 -11 4 6 18 12 9 27 30 33 46 7 19 15 26 26 22 9 -3 26 -6 39 -6z m274
-35 l34 -7 -7 -56 c-6 -48 -5 -53 9 -42 20 16 20 6 0 -14 -16 -16 -36 -101
-28 -121 6 -17 -54 -65 -81 -65 -37 0 -86 21 -96 40 -6 10 -10 42 -10 70 0 38
-3 50 -12 45 -7 -4 -6 -1 2 7 17 15 19 22 29 96 9 60 21 73 60 62 29 -8 29 -3
6 -134 -15 -83 -15 -89 2 -103 17 -14 17 -14 -2 -8 -16 5 -18 4 -7 -6 21 -22
32 3 46 102 17 113 17 130 -1 147 -7 7 -13 19 -13 25 1 7 9 2 18 -9 10 -12 33
-25 51 -29z m88 12 c13 5 13 2 4 -15 -15 -28 -37 -42 -28 -17 4 9 2 25 -5 34
-10 13 -10 14 1 4 7 -6 20 -9 28 -6z m155 -55 c10 -10 21 -37 24 -61 l6 -44
-38 8 c-36 6 -53 19 -54 38 0 5 6 5 13 1 6 -4 4 2 -6 12 -18 18 -19 18 -32 1
-14 -19 -30 -129 -23 -163 2 -10 11 -20 21 -22 12 -3 19 5 23 28 6 29 9 31 48
28 32 -2 42 -7 44 -23 2 -14 0 -16 -6 -7 -6 9 -12 1 -20 -26 -13 -41 -42 -62
-88 -62 -35 0 -84 30 -89 55 -9 44 -11 135 -3 135 4 0 8 11 8 25 0 15 7 39 15
54 8 16 11 32 7 36 -4 5 -2 5 4 2 7 -4 17 -1 23 7 15 18 98 3 123 -22z m128
22 c0 -8 -5 -12 -10 -9 -6 4 -8 11 -5 16 9 14 15 11 15 -7z m60 -9 c0 -8 -2
-15 -4 -15 -2 0 -6 7 -10 15 -3 8 -1 15 4 15 6 0 10 -7 10 -15z m89 -1 c11
-11 -7 -10 -34 3 l-30 14 30 -6 c16 -4 32 -9 34 -11z m-50 -29 c5 -3 12 1 14
7 3 7 6 -7 6 -31 1 -43 0 -43 -29 -39 -27 4 -30 1 -35 -26 -7 -43 -25 -185
-25 -197 0 -5 -16 -9 -35 -9 -19 0 -35 -4 -35 -10 0 -5 5 -10 11 -10 5 0 7 -4
4 -10 -3 -5 -13 -10 -21 -10 -12 0 -14 10 -10 48 2 26 5 63 5 82 1 23 4 30 10
22 5 -9 10 1 14 30 4 28 2 45 -6 50 -9 6 -9 8 1 8 6 0 12 11 12 25 0 20 -5 25
-26 25 -20 0 -25 4 -20 16 3 9 6 22 6 30 0 12 14 14 75 10 42 -3 80 -8 84 -11z
m126 -49 c-3 -17 -7 -51 -9 -76 -2 -25 -9 -79 -16 -120 l-12 -76 -34 4 c-38 5
-38 2 -23 107 8 59 7 80 -2 91 -10 12 -10 15 2 12 10 -2 15 9 17 37 3 46 21
64 57 57 22 -4 25 -8 20 -36z m205 -5 c19 -14 26 -30 30 -69 l5 -50 22 18 c13
10 27 35 31 57 4 21 11 37 15 36 4 -2 20 -3 36 -3 28 0 29 -1 41 -82 15 -92
16 -92 25 5 6 60 9 67 28 67 43 0 45 -9 33 -102 -7 -49 -9 -88 -4 -88 4 0 8
10 8 23 1 18 3 16 16 -12 17 -40 14 -47 -14 -32 -19 10 -21 7 -28 -45 -6 -50
-8 -55 -28 -50 -11 3 -29 6 -38 6 -13 0 -18 8 -18 29 0 17 -4 32 -10 36 -5 3
-7 12 -3 20 3 8 0 15 -6 15 -6 0 -10 -3 -9 -7 1 -5 -2 -25 -6 -45 -7 -33 -12
-38 -37 -38 -28 0 -29 2 -29 43 0 24 5 69 11 101 6 32 8 60 5 63 -11 12 -56
-48 -56 -74 0 -16 -9 -46 -19 -67 -19 -35 -19 -40 -4 -65 l15 -26 -18 23 c-16
18 -28 22 -65 21 -25 -1 -51 1 -58 5 -6 4 -18 2 -26 -4 -11 -9 -15 -9 -15 -1
0 6 4 11 10 11 5 0 2 16 -7 35 -15 31 -15 46 -5 121 12 92 29 129 65 144 29
12 76 4 107 -19z m-533 -173 c-3 -8 -6 -5 -6 6 -1 11 2 17 5 13 3 -3 4 -12 1
-19z m-256 -1 c-6 -8 -8 -17 -4 -20 3 -4 1 -7 -5 -7 -16 0 -15 27 1 33 19 8
20 8 8 -6z m423 -2 c3 -8 1 -15 -4 -15 -6 0 -10 7 -10 15 0 8 2 15 4 15 2 0 6
-7 10 -15z m-167 -57 c-3 -7 -5 -2 -5 12 0 14 2 19 5 13 2 -7 2 -19 0 -25z"/>
<path d="M633 1110 c-9 -34 -9 -46 0 -52 13 -8 20 24 15 70 -3 24 -5 21 -15
-18z"/>
<path d="M1665 1041 c-9 -15 -25 -162 -19 -172 3 -5 10 -9 15 -9 6 0 7 5 3 12
-5 7 -2 9 8 5 19 -7 24 9 34 106 6 63 6 67 -14 67 -11 0 -23 -4 -27 -9z"/>
<path d="M1882 900 c0 -14 2 -19 5 -12 2 6 2 18 0 25 -3 6 -5 1 -5 -13z"/>
<path d="M1516 1275 c-2 -7 2 -16 10 -19 25 -10 34 -7 28 8 -8 20 -31 27 -38
11z"/>
<path d="M272 1218 c3 -7 20 -56 38 -108 l33 -96 -47 -71 c-26 -39 -46 -75
-45 -80 4 -21 -2 -32 -16 -27 -8 4 -15 2 -15 -4 0 -15 63 -27 68 -13 2 7 9 6
19 -4 8 -8 31 -15 51 -16 20 0 49 -3 65 -5 26 -5 37 9 17 21 -6 4 -19 24 -31
46 -20 40 -20 43 -5 161 20 152 21 146 -9 154 -14 3 -25 10 -25 15 0 13 14 11
28 -3 9 -9 15 -9 24 0 16 16 9 20 -52 32 -72 14 -103 13 -98 -2z m73 -8 c3 -5
2 -10 -4 -10 -5 0 -13 5 -16 10 -3 6 -2 10 4 10 5 0 13 -4 16 -10z"/>
<path d="M1972 1170 c0 -14 2 -19 5 -12 2 6 2 18 0 25 -3 6 -5 1 -5 -13z"/>
<path d="M2143 908 c-7 -52 -7 -75 1 -80 6 -5 7 -8 1 -8 -5 0 -3 -5 5 -10 13
-8 13 -10 -2 -10 -10 0 -20 -10 -22 -22 -13 -66 -13 -84 -1 -102 8 -10 12 -23
8 -29 -3 -5 1 -13 8 -18 11 -7 9 -9 -8 -9 -12 0 -24 -6 -26 -12 -4 -10 -6 -10
-6 -1 -1 6 4 15 9 18 6 3 10 17 10 31 l0 25 -27 -26 c-16 -14 -28 -31 -28 -38
0 -6 -5 -12 -12 -12 -7 0 -17 -5 -23 -11 -12 -12 8 -16 120 -29 25 -3 59 -8
77 -11 l32 -5 -35 103 c-20 57 -40 107 -45 113 -12 12 -12 28 0 21 9 -6 111
138 111 155 0 5 5 9 11 9 5 0 8 4 5 9 -10 15 -119 23 -128 9 -6 -10 -8 -10 -8
0 0 6 -4 12 -9 12 -4 0 -13 -33 -18 -72z"/>
<path d="M420 883 c0 -5 7 -17 16 -28 13 -17 16 -18 24 -5 16 26 11 40 -15 40
-14 0 -25 -3 -25 -7z"/>
<path d="M485 869 c-15 -24 -15 -70 0 -98 21 -42 28 -39 23 9 -2 23 1 40 7 40
5 0 11 -21 11 -46 1 -33 7 -49 21 -59 28 -20 53 -76 53 -119 0 -22 5 -36 13
-36 9 0 8 -3 -2 -9 -7 -5 -11 -16 -7 -27 7 -23 65 -64 90 -64 46 0 98 -45 120
-106 8 -21 15 -33 15 -26 1 6 5 12 10 12 5 0 7 -9 4 -19 -7 -28 47 -55 90 -45
70 16 109 3 169 -53 49 -48 84 -51 156 -12 62 33 104 34 163 4 15 -8 38 -15
51 -15 34 0 69 27 61 47 -4 11 -3 14 5 9 7 -4 12 -3 12 2 0 6 21 24 47 41 34
23 58 31 91 31 35 0 43 3 39 15 -4 8 -2 17 2 20 5 3 11 -2 15 -10 14 -37 76 7
76 54 0 32 32 100 47 101 6 0 18 8 25 18 7 9 24 18 38 20 36 4 73 31 66 48 -3
9 -1 12 4 9 6 -4 10 10 10 33 0 62 -54 74 -82 18 -19 -39 -16 -46 26 -47 30
-1 30 -1 6 -8 -14 -5 -31 -3 -39 3 -10 8 -18 3 -34 -19 -25 -36 -164 -175
-192 -192 -87 -54 -211 -103 -300 -118 -77 -13 -218 -6 -299 15 -60 15 -82 17
-93 9 -10 -9 -12 -9 -8 3 4 10 -5 21 -27 32 -78 39 -125 68 -155 97 -18 17
-37 27 -43 24 -6 -4 -9 -3 -8 2 5 15 -46 74 -60 68 -8 -3 -12 0 -10 7 3 7 -14
42 -37 78 -23 36 -53 93 -66 128 -15 38 -30 62 -39 62 -12 0 -13 2 -1 9 9 6
11 18 7 36 -6 23 -9 25 -23 13 -15 -11 -16 -11 -10 5 5 12 1 17 -13 17 -10 0
-22 -5 -25 -11z m675 -649 c0 -5 -4 -10 -10 -10 -5 0 -10 5 -10 10 0 6 5 10
10 10 6 0 10 -4 10 -10z"/>
<path d="M571 860 c1 -8 5 -26 9 -40 l8 -25 1 25 c0 14 -4 32 -9 40 -9 13 -10
13 -9 0z"/>
<path d="M840 782 c34 -65 72 -112 89 -112 6 0 11 -7 11 -15 0 -15 96 -85 123
-89 8 -1 22 -7 30 -14 15 -13 135 -42 175 -42 26 0 30 19 5 21 -65 5 -92 9
-120 18 -18 5 -33 7 -33 3 0 -4 -4 -2 -8 3 -7 11 -19 18 -98 59 -50 26 -107
90 -158 179 -40 67 -53 59 -16 -11z"/>
<path d="M600 765 c0 -5 5 -17 10 -25 5 -8 10 -10 10 -5 0 6 -5 17 -10 25 -5
8 -10 11 -10 5z"/>
<path d="M1016 755 c-3 -8 0 -17 6 -21 6 -4 8 -3 4 4 -3 6 2 12 11 14 16 3 17
4 1 10 -10 4 -18 1 -22 -7z"/>
<path d="M1651 717 c-6 -8 -8 -17 -4 -20 7 -8 33 11 33 24 0 13 -16 11 -29 -4z"/>
<path d="M625 705 c24 -75 145 -224 224 -276 l46 -30 -49 43 c-83 73 -138 136
-184 211 -24 39 -41 63 -37 52z"/>
<path d="M1449 708 c-9 -30 -6 -36 12 -25 23 14 25 27 4 27 -8 0 -15 -1 -16
-2z"/>
<path d="M1089 693 c-11 -2 -15 -11 -12 -22 5 -21 43 -17 43 4 0 7 6 16 13 18
15 6 -21 6 -44 0z"/>
<path d="M1200 670 c0 -13 -8 -29 -17 -36 -17 -12 -16 -13 4 -14 13 0 24 -8
29 -22 6 -19 7 -19 16 -5 5 10 19 17 31 17 17 0 19 2 8 9 -8 5 -12 19 -9 34 4
20 1 23 -14 19 -10 -2 -25 1 -33 8 -13 10 -15 9 -15 -10z"/>
<path d="M1876 626 c-20 -36 -63 -89 -102 -125 -36 -34 -64 -65 -61 -67 15
-16 207 215 207 248 0 18 -10 5 -44 -56z"/>
<path d="M1358 658 c-15 -23 -15 -25 3 -36 16 -10 19 -9 19 3 0 8 6 15 13 15
8 0 9 3 1 8 -6 4 -13 13 -15 21 -4 10 -10 7 -21 -11z"/>
<path d="M1620 673 c-8 -3 -31 -19 -50 -36 -48 -42 -147 -86 -209 -94 -69 -8
-77 -25 -9 -20 66 5 158 42 220 87 36 27 80 74 66 69 -2 0 -10 -3 -18 -6z"/>
<path d="M2021 673 c0 -5 4 -16 8 -26 6 -16 9 -15 31 10 14 15 17 21 8 14 -12
-9 -18 -10 -18 -2 0 6 -7 11 -15 11 -8 0 -15 -3 -14 -7z"/>
<path d="M821 607 c-52 -33 -60 -42 -46 -49 9 -6 19 -7 22 -4 11 11 31 -15 26
-33 -11 -43 18 -27 51 28 40 66 41 68 23 85 -10 10 -24 5 -76 -27z m49 -16
c-13 -25 -27 -34 -34 -22 -4 5 4 17 16 25 29 20 31 20 18 -3z"/>
<path d="M928 538 c-38 -66 -40 -76 -18 -98 31 -31 56 -25 88 23 42 63 43 64
28 76 -12 10 -20 3 -43 -38 -15 -28 -34 -51 -40 -51 -20 0 -15 22 12 62 27 41
35 76 9 43 -16 -20 -16 -20 -9 3 10 34 -1 26 -27 -20z"/>
<path d="M1565 560 c-7 -12 12 -50 25 -50 6 0 10 -4 10 -10 0 -18 -20 -11 -44
15 -15 16 -30 23 -40 19 -9 -3 -16 -8 -16 -10 0 -8 53 -100 66 -113 22 -23 30
-3 11 28 -25 42 -21 46 14 17 58 -49 72 -26 29 49 -34 59 -45 71 -55 55z"/>
<path d="M1070 494 c0 -8 -4 -13 -9 -10 -8 5 -31 -58 -31 -87 0 -34 82 -52 94
-20 10 26 -13 42 -26 19 -9 -17 -12 -17 -22 -4 -6 8 -18 17 -26 21 -12 4 -12
6 2 6 9 1 21 15 27 31 9 28 41 43 41 19 0 -5 4 -7 10 -4 6 3 7 -1 4 -9 -3 -9
-1 -16 5 -16 18 0 13 41 -6 56 -25 19 -63 18 -63 -2z"/>
<path d="M1399 481 l-23 -18 20 -54 c20 -57 34 -66 77 -50 21 8 27 17 27 40 0
36 -27 101 -41 101 -11 0 -10 -18 7 -93 6 -25 4 -28 -12 -25 -23 4 -46 89 -26
96 14 4 16 22 3 22 -5 0 -19 -8 -32 -19z"/>
<path d="M1180 472 c0 -5 11 -15 25 -22 16 -9 22 -17 16 -24 -12 -14 -18 -83
-8 -93 14 -13 27 20 27 70 0 40 3 47 20 47 11 0 20 5 20 11 0 7 -10 9 -25 7
-14 -3 -28 -1 -31 3 -7 11 -44 12 -44 1z"/>
<path d="M1317 473 c-11 -10 -8 -35 3 -28 6 3 10 -3 10 -15 0 -12 -4 -18 -10
-15 -12 7 -13 -9 -4 -54 4 -17 13 -31 20 -31 15 0 18 47 8 113 -6 36 -14 44
-27 30z"/>
<path d="M1664 409 c-19 -22 -19 -22 3 -10 24 12 39 31 25 31 -5 0 -17 -10
-28 -21z"/>
<path d="M900 394 c0 -10 145 -72 206 -88 39 -10 97 -15 155 -14 l94 1 -115 8
c-118 7 -223 35 -297 79 -36 21 -43 23 -43 14z"/>
<path d="M1604 375 c-10 -8 -14 -15 -8 -15 5 0 19 7 30 15 10 8 14 15 8 15 -5
0 -19 -7 -30 -15z"/>
<path d="M1495 334 c-38 -12 -86 -27 -105 -33 -34 -10 -34 -10 10 -5 51 7 160
41 175 55 12 12 3 10 -80 -17z"/>
</g>
</svg>
